<svg width="427" height="235" viewBox="0 0 427 235" fill="none" xmlns="http://www.w3.org/2000/svg">
<circle cx="407.5" cy="193.5" r="3.5" fill="#9CCFFF"/>
<circle cx="396.5" cy="193.5" r="3.5" fill="#9CCFFF"/>
<circle cx="385.5" cy="193.5" r="3.5" fill="#9CCFFF"/>
<circle cx="374.5" cy="193.5" r="3.5" fill="#9CCFFF"/>
<circle cx="363.5" cy="193.5" r="3.5" fill="#9CCFFF"/>
<circle cx="352.5" cy="193.5" r="3.5" fill="#9CCFFF"/>
<circle cx="341.5" cy="193.5" r="3.5" fill="#9CCFFF"/>
<circle cx="330.5" cy="193.5" r="3.5" fill="#9CCFFF"/>
<circle cx="319.5" cy="193.5" r="3.5" fill="#9CCFFF"/>
<circle cx="308.5" cy="193.5" r="3.5" fill="#9CCFFF"/>
<circle cx="297.5" cy="193.5" r="3.5" fill="#9CCFFF"/>
<circle cx="286.5" cy="193.5" r="3.5" fill="#9CCFFF"/>
<circle cx="275.5" cy="193.5" r="3.5" fill="#9CCFFF"/>
<circle cx="264.5" cy="193.5" r="3.5" fill="#9CCFFF"/>
<circle cx="253.5" cy="193.5" r="3.5" fill="#9CCFFF"/>
<circle cx="242.5" cy="193.5" r="3.5" fill="#9CCFFF"/>
<circle cx="407.5" cy="180.5" r="3.5" fill="#9CCFFF"/>
<circle cx="396.5" cy="180.5" r="3.5" fill="#9CCFFF"/>
<circle cx="385.5" cy="180.5" r="3.5" fill="#9CCFFF"/>
<circle cx="374.5" cy="180.5" r="3.5" fill="#9CCFFF"/>
<circle cx="363.5" cy="180.5" r="3.5" fill="#9CCFFF"/>
<circle cx="352.5" cy="180.5" r="3.5" fill="#9CCFFF"/>
<circle cx="341.5" cy="180.5" r="3.5" fill="#9CCFFF"/>
<circle cx="330.5" cy="180.5" r="3.5" fill="#9CCFFF"/>
<circle cx="319.5" cy="180.5" r="3.5" fill="#9CCFFF"/>
<circle cx="308.5" cy="180.5" r="3.5" fill="#9CCFFF"/>
<circle cx="297.5" cy="180.5" r="3.5" fill="#9CCFFF"/>
<circle cx="286.5" cy="180.5" r="3.5" fill="#9CCFFF"/>
<circle cx="275.5" cy="180.5" r="3.5" fill="#9CCFFF"/>
<circle cx="264.5" cy="180.5" r="3.5" fill="#9CCFFF"/>
<circle cx="253.5" cy="180.5" r="3.5" fill="#9CCFFF"/>
<circle cx="242.5" cy="180.5" r="3.5" fill="#9CCFFF"/>
<circle cx="407.5" cy="167.5" r="3.5" fill="#9CCFFF"/>
<circle cx="396.5" cy="167.5" r="3.5" fill="#9CCFFF"/>
<circle cx="385.5" cy="167.5" r="3.5" fill="#9CCFFF"/>
<circle cx="374.5" cy="167.5" r="3.5" fill="#9CCFFF"/>
<circle cx="363.5" cy="167.5" r="3.5" fill="#9CCFFF"/>
<circle cx="352.5" cy="167.5" r="3.5" fill="#9CCFFF"/>
<circle cx="341.5" cy="167.5" r="3.5" fill="#9CCFFF"/>
<circle cx="330.5" cy="167.5" r="3.5" fill="#9CCFFF"/>
<circle cx="319.5" cy="167.5" r="3.5" fill="#9CCFFF"/>
<circle cx="308.5" cy="167.5" r="3.5" fill="#9CCFFF"/>
<circle cx="297.5" cy="167.5" r="3.5" fill="#9CCFFF"/>
<circle cx="286.5" cy="167.5" r="3.5" fill="#9CCFFF"/>
<circle cx="275.5" cy="167.5" r="3.5" fill="#9CCFFF"/>
<circle cx="264.5" cy="167.5" r="3.5" fill="#9CCFFF"/>
<circle cx="253.5" cy="167.5" r="3.5" fill="#9CCFFF"/>
<circle cx="242.5" cy="167.5" r="3.5" fill="#9CCFFF"/>
<circle cx="407.5" cy="154.5" r="3.5" fill="#9CCFFF"/>
<circle cx="396.5" cy="154.5" r="3.5" fill="#9CCFFF"/>
<circle cx="385.5" cy="154.5" r="3.5" fill="#9CCFFF"/>
<circle cx="374.5" cy="154.5" r="3.5" fill="#9CCFFF"/>
<circle cx="363.5" cy="154.5" r="3.5" fill="#9CCFFF"/>
<circle cx="352.5" cy="154.5" r="3.5" fill="#9CCFFF"/>
<circle cx="341.5" cy="154.5" r="3.5" fill="#9CCFFF"/>
<circle cx="330.5" cy="154.5" r="3.5" fill="#9CCFFF"/>
<circle cx="319.5" cy="154.5" r="3.5" fill="#9CCFFF"/>
<circle cx="308.5" cy="154.5" r="3.5" fill="#9CCFFF"/>
<circle cx="297.5" cy="154.5" r="3.5" fill="#9CCFFF"/>
<circle cx="286.5" cy="154.5" r="3.5" fill="#9CCFFF"/>
<circle cx="275.5" cy="154.5" r="3.5" fill="#9CCFFF"/>
<circle cx="264.5" cy="154.5" r="3.5" fill="#9CCFFF"/>
<circle cx="253.5" cy="154.5" r="3.5" fill="#9CCFFF"/>
<circle cx="242.5" cy="154.5" r="3.5" fill="#9CCFFF"/>
<circle cx="407.5" cy="141.5" r="3.5" fill="#9CCFFF"/>
<circle cx="396.5" cy="141.5" r="3.5" fill="#9CCFFF"/>
<circle cx="385.5" cy="141.5" r="3.5" fill="#9CCFFF"/>
<circle cx="374.5" cy="141.5" r="3.5" fill="#9CCFFF"/>
<circle cx="363.5" cy="141.5" r="3.5" fill="#9CCFFF"/>
<circle cx="352.5" cy="141.5" r="3.5" fill="#9CCFFF"/>
<circle cx="341.5" cy="141.5" r="3.5" fill="#9CCFFF"/>
<circle cx="330.5" cy="141.5" r="3.5" fill="#9CCFFF"/>
<circle cx="319.5" cy="141.5" r="3.5" fill="#9CCFFF"/>
<circle cx="308.5" cy="141.5" r="3.5" fill="#9CCFFF"/>
<circle cx="297.5" cy="141.5" r="3.5" fill="#9CCFFF"/>
<circle cx="286.5" cy="141.5" r="3.5" fill="#9CCFFF"/>
<circle cx="275.5" cy="141.5" r="3.5" fill="#9CCFFF"/>
<circle cx="264.5" cy="141.5" r="3.5" fill="#9CCFFF"/>
<circle cx="253.5" cy="141.5" r="3.5" fill="#9CCFFF"/>
<circle cx="242.5" cy="141.5" r="3.5" fill="#9CCFFF"/>
<circle cx="407.5" cy="128.5" r="3.5" fill="#9CCFFF"/>
<circle cx="396.5" cy="128.5" r="3.5" fill="#9CCFFF"/>
<circle cx="385.5" cy="128.5" r="3.5" fill="#9CCFFF"/>
<circle cx="374.5" cy="128.5" r="3.5" fill="#9CCFFF"/>
<circle cx="363.5" cy="128.5" r="3.5" fill="#9CCFFF"/>
<circle cx="352.5" cy="128.5" r="3.5" fill="#9CCFFF"/>
<circle cx="341.5" cy="128.5" r="3.5" fill="#9CCFFF"/>
<circle cx="330.5" cy="128.5" r="3.5" fill="#9CCFFF"/>
<circle cx="319.5" cy="128.5" r="3.5" fill="#9CCFFF"/>
<circle cx="308.5" cy="128.5" r="3.5" fill="#9CCFFF"/>
<circle cx="297.5" cy="128.5" r="3.5" fill="#9CCFFF"/>
<circle cx="286.5" cy="128.5" r="3.5" fill="#9CCFFF"/>
<circle cx="275.5" cy="128.5" r="3.5" fill="#9CCFFF"/>
<circle cx="264.5" cy="128.5" r="3.5" fill="#9CCFFF"/>
<circle cx="253.5" cy="128.5" r="3.5" fill="#9CCFFF"/>
<circle cx="242.5" cy="128.5" r="3.5" fill="#9CCFFF"/>
<circle cx="407.5" cy="115.5" r="3.5" fill="#9CCFFF"/>
<circle cx="396.5" cy="115.5" r="3.5" fill="#9CCFFF"/>
<circle cx="385.5" cy="115.5" r="3.5" fill="#9CCFFF"/>
<circle cx="374.5" cy="115.5" r="3.5" fill="#9CCFFF"/>
<circle cx="363.5" cy="115.5" r="3.5" fill="#9CCFFF"/>
<circle cx="352.5" cy="115.5" r="3.5" fill="#9CCFFF"/>
<circle cx="341.5" cy="115.5" r="3.5" fill="#9CCFFF"/>
<circle cx="330.5" cy="115.5" r="3.5" fill="#9CCFFF"/>
<circle cx="319.5" cy="115.5" r="3.5" fill="#9CCFFF"/>
<circle cx="308.5" cy="115.5" r="3.5" fill="#9CCFFF"/>
<circle cx="297.5" cy="115.5" r="3.5" fill="#9CCFFF"/>
<circle cx="286.5" cy="115.5" r="3.5" fill="#9CCFFF"/>
<circle cx="275.5" cy="115.5" r="3.5" fill="#9CCFFF"/>
<circle cx="264.5" cy="115.5" r="3.5" fill="#9CCFFF"/>
<circle cx="253.5" cy="115.5" r="3.5" fill="#9CCFFF"/>
<circle cx="242.5" cy="115.5" r="3.5" fill="#9CCFFF"/>
<circle cx="407.5" cy="102.5" r="3.5" fill="#9CCFFF"/>
<circle cx="396.5" cy="102.5" r="3.5" fill="#9CCFFF"/>
<circle cx="385.5" cy="102.5" r="3.5" fill="#9CCFFF"/>
<circle cx="374.5" cy="102.5" r="3.5" fill="#9CCFFF"/>
<circle cx="363.5" cy="102.5" r="3.5" fill="#9CCFFF"/>
<circle cx="352.5" cy="102.5" r="3.5" fill="#9CCFFF"/>
<circle cx="341.5" cy="102.5" r="3.5" fill="#9CCFFF"/>
<circle cx="330.5" cy="102.5" r="3.5" fill="#9CCFFF"/>
<circle cx="319.5" cy="102.5" r="3.5" fill="#9CCFFF"/>
<circle cx="308.5" cy="102.5" r="3.5" fill="#9CCFFF"/>
<circle cx="297.5" cy="102.5" r="3.5" fill="#9CCFFF"/>
<circle cx="286.5" cy="102.5" r="3.5" fill="#9CCFFF"/>
<circle cx="275.5" cy="102.5" r="3.5" fill="#9CCFFF"/>
<circle cx="264.5" cy="102.5" r="3.5" fill="#9CCFFF"/>
<circle cx="253.5" cy="102.5" r="3.5" fill="#9CCFFF"/>
<circle cx="242.5" cy="102.5" r="3.5" fill="#9CCFFF"/>
<path d="M194.105 72.1127L204.598 39L276.023 111.213L199.873 122.922" stroke="#DFB7FF" stroke-width="5"/>
<path d="M144.393 28.4812L49.906 33.1112M144.393 28.4812L212.624 88.8504M144.393 28.4812L137.425 48.8209M144.393 28.4812L184.41 97.1555M144.393 28.4812L61.8985 55.189M83.1442 207.282L175.194 198.117M83.1442 207.282L12.4765 142.378M83.1442 207.282L91.2459 183.631M30.6241 89.4003L49.906 33.1112M212.624 88.8504L175.194 198.117M212.624 88.8504L137.425 48.8209M212.624 88.8504L184.41 97.1555M175.194 198.117L91.2459 183.631M175.194 198.117L184.41 97.1555M175.194 198.117L158.485 172.838M49.906 33.1112L12.4765 142.378M49.906 33.1112L137.425 48.8209M49.906 33.1112L61.8985 55.189M12.4765 142.378L91.2459 183.631M12.4765 142.378L61.8985 55.189M12.4765 142.378L44.0146 133.626M91.2459 183.631L61.8985 55.189M91.2459 183.631L184.41 97.1555M137.425 48.8209L158.485 172.838M137.425 48.8209L44.0146 133.626M184.41 97.1555L61.8985 55.189M44.0146 133.626L158.485 172.838" stroke="#D5D394" stroke-opacity="0.81" stroke-width="3"/>
<path d="M424.5 102.5V210H241" stroke="#9CCFFF" stroke-width="4"/>
</svg>
